<svg width="165" height="165" viewBox="0 0 165 165" fill="none" xmlns="http://www.w3.org/2000/svg">
<path d="M82.5 0C66.1831 0 50.2325 4.83854 36.6655 13.9038C23.0984 22.969 12.5242 35.8537 6.27997 50.9286C0.035746 66.0035 -1.59803 82.5915 1.58525 98.5949C4.76853 114.598 12.6259 129.298 24.1637 140.836C35.7015 152.374 50.4016 160.231 66.4051 163.415C82.4085 166.598 98.9965 164.964 114.071 158.72C129.146 152.476 142.031 141.902 151.096 128.335C160.161 114.767 165 98.8169 165 82.5C164.977 60.6267 156.278 39.6559 140.811 24.1892C125.344 8.72245 104.373 0.0230986 82.5 0ZM112.375 103.395C112.964 103.984 113.432 104.684 113.751 105.455C114.07 106.225 114.234 107.051 114.234 107.885C114.234 108.718 114.07 109.544 113.751 110.315C113.432 111.085 112.964 111.785 112.375 112.374C111.785 112.964 111.085 113.432 110.315 113.751C109.544 114.07 108.718 114.234 107.885 114.234C107.051 114.234 106.225 114.07 105.455 113.751C104.684 113.432 103.984 112.964 103.395 112.374L82.5 91.4718L61.6053 112.374C61.0157 112.964 60.3157 113.432 59.5453 113.751C58.7749 114.07 57.9493 114.234 57.1154 114.234C56.2816 114.234 55.4559 114.07 54.6855 113.751C53.9151 113.432 53.2151 112.964 52.6255 112.374C52.0359 111.785 51.5682 111.085 51.2491 110.315C50.93 109.544 50.7657 108.718 50.7657 107.885C50.7657 107.051 50.93 106.225 51.2491 105.455C51.5682 104.684 52.0359 103.984 52.6255 103.395L73.5281 82.5L52.6255 61.6053C51.4347 60.4145 50.7657 58.7994 50.7657 57.1154C50.7657 55.4313 51.4347 53.8163 52.6255 52.6255C53.8163 51.4347 55.4314 50.7657 57.1154 50.7657C58.7994 50.7657 60.4145 51.4347 61.6053 52.6255L82.5 73.5281L103.395 52.6255C103.984 52.0358 104.684 51.5681 105.455 51.249C106.225 50.9299 107.051 50.7657 107.885 50.7657C108.718 50.7657 109.544 50.9299 110.315 51.249C111.085 51.5681 111.785 52.0358 112.375 52.6255C112.964 53.2151 113.432 53.9151 113.751 54.6855C114.07 55.4558 114.234 56.2815 114.234 57.1154C114.234 57.9492 114.07 58.7749 113.751 59.5453C113.432 60.3157 112.964 61.0157 112.375 61.6053L91.4719 82.5L112.375 103.395Z" fill="#8E1127"/>
</svg>
