<svg width="168" height="168" viewBox="0 0 168 168" fill="none" xmlns="http://www.w3.org/2000/svg">
<path d="M84 0C67.3864 0 51.1459 4.92651 37.3321 14.1565C23.5184 23.3866 12.7519 36.5056 6.39416 51.8546C0.0363958 67.2036 -1.62708 84.0932 1.61407 100.388C4.85523 116.682 12.8555 131.649 24.6031 143.397C36.3507 155.145 51.318 163.145 67.6124 166.386C83.9068 169.627 100.796 167.964 116.145 161.606C131.494 155.248 144.613 144.482 153.843 130.668C163.073 116.854 168 100.614 168 84C168 61.7218 159.15 40.3561 143.397 24.603C127.644 8.84997 106.278 0 84 0ZM72 117.54L42 87.54L51.54 78L72 98.46L116.46 54L126.036 63.516L72 117.54Z" fill="#14B8A6"/>
</svg>
