<svg width="191" height="191" viewBox="0 0 191 191" fill="none" xmlns="http://www.w3.org/2000/svg">
<path d="M95.5 0C120.828 0 145.119 10.0616 163.029 27.9713C180.938 45.881 191 70.1718 191 95.5C191 120.828 180.938 145.119 163.029 163.029C145.119 180.938 120.828 191 95.5 191C70.1718 191 45.881 180.938 27.9713 163.029C10.0616 145.119 0 120.828 0 95.5C0 70.1718 10.0616 45.881 27.9713 27.9713C45.881 10.0616 70.1718 0 95.5 0ZM100.562 40.8194C89.4562 40.8194 80.7521 43.9709 74.299 50.2739C67.6959 56.5769 64.5444 65.2811 64.5444 76.3864H81.6525C81.6525 70.0834 82.8531 65.131 85.4043 61.6794C88.2556 57.4774 92.9079 55.5264 99.511 55.5264C104.613 55.5264 108.665 56.8771 111.517 59.7284C114.218 62.5798 115.719 66.4816 115.719 71.434C115.719 75.1858 114.368 78.7875 111.667 82.0891L109.866 84.1901C100.111 92.8942 94.2585 99.1972 92.3076 103.249C90.2066 107.301 89.3061 112.253 89.3061 117.956V120.057H106.564V117.956C106.564 114.354 107.315 111.203 108.815 108.201C110.166 105.5 112.117 102.949 114.818 100.698C122.022 94.3949 126.374 90.343 127.724 88.8423C131.326 84.04 133.277 77.8871 133.277 70.3835C133.277 61.2291 130.276 54.0257 124.273 48.7732C118.27 43.3706 110.316 40.8194 100.562 40.8194ZM97.8602 127.411C94.8003 127.328 91.8323 128.461 89.6063 130.562C88.5073 131.597 87.6437 132.857 87.0741 134.255C86.5044 135.653 86.242 137.158 86.3047 138.666C86.3047 141.968 87.3552 144.669 89.6063 146.77C91.8156 148.914 94.7815 150.101 97.8602 150.071C101.162 150.071 103.863 149.021 106.114 146.92C107.236 145.863 108.124 144.582 108.719 143.16C109.313 141.738 109.602 140.207 109.566 138.666C109.595 137.162 109.317 135.668 108.749 134.274C108.181 132.881 107.336 131.618 106.264 130.562C103.98 128.457 100.965 127.326 97.8602 127.411Z" fill="#F7C02B"/>
</svg>
