<svg width="34" height="26" viewBox="0 0 34 26" fill="none" xmlns="http://www.w3.org/2000/svg">
<path d="M5.1 11.1429C6.97531 11.1429 8.5 9.47723 8.5 7.42857C8.5 5.37991 6.97531 3.71429 5.1 3.71429C3.22469 3.71429 1.7 5.37991 1.7 7.42857C1.7 9.47723 3.22469 11.1429 5.1 11.1429ZM28.9 11.1429C30.7753 11.1429 32.3 9.47723 32.3 7.42857C32.3 5.37991 30.7753 3.71429 28.9 3.71429C27.0247 3.71429 25.5 5.37991 25.5 7.42857C25.5 9.47723 27.0247 11.1429 28.9 11.1429ZM30.6 13H27.2C26.265 13 25.4203 13.4121 24.8041 14.0795C26.945 15.3621 28.4644 17.6777 28.7938 20.4286H32.3C33.2403 20.4286 34 19.5987 34 18.5714V16.7143C34 14.6656 32.4753 13 30.6 13ZM17 13C20.2884 13 22.95 10.0924 22.95 6.5C22.95 2.90759 20.2884 0 17 0C13.7116 0 11.05 2.90759 11.05 6.5C11.05 10.0924 13.7116 13 17 13ZM21.08 14.8571H20.6391C19.5341 15.4375 18.3069 15.7857 17 15.7857C15.6931 15.7857 14.4713 15.4375 13.3609 14.8571H12.92C9.54125 14.8571 6.8 17.8518 6.8 21.5429V23.2143C6.8 24.7522 7.94219 26 9.35 26H24.65C26.0578 26 27.2 24.7522 27.2 23.2143V21.5429C27.2 17.8518 24.4587 14.8571 21.08 14.8571ZM9.19594 14.0795C8.57969 13.4121 7.735 13 6.8 13H3.4C1.52469 13 0 14.6656 0 16.7143V18.5714C0 19.5987 0.759687 20.4286 1.7 20.4286H5.20094C5.53563 17.6777 7.055 15.3621 9.19594 14.0795Z" fill="black"/>
</svg>
