<svg width="26" height="25" viewBox="0 0 26 25" fill="none" xmlns="http://www.w3.org/2000/svg">
<path d="M14.3 19.7368V22.3684H19.5V25H6.50005V22.3684H11.7V19.7368H1.28966C1.11884 19.7358 0.949908 19.7006 0.792549 19.6334C0.635191 19.5661 0.492508 19.468 0.372689 19.3448C0.25287 19.2216 0.158274 19.0756 0.0943294 18.9153C0.0303848 18.7549 -0.00164931 18.5834 6.53683e-05 18.4105V1.32632C6.53683e-05 0.593421 0.591564 0 1.28966 0H24.7104C25.4228 0 26 0.590789 26 1.325V18.4105C26 19.1434 25.4085 19.7368 24.7104 19.7368H14.3Z" fill="black"/>
</svg>
