<svg width="24" height="27" viewBox="0 0 24 27" fill="none" xmlns="http://www.w3.org/2000/svg">
<path fill-rule="evenodd" clip-rule="evenodd" d="M5.13139 2.62463C5.13139 2.29693 8.57867 0 12.0015 0C15.4244 0 18.8717 2.29693 18.8717 2.62463C18.8717 3.79447 18.745 4.48738 18.6381 4.86457C18.5671 5.11204 18.3312 5.24927 18.0694 5.24927H5.93367C5.67184 5.24927 5.43596 5.11204 5.36497 4.86457C5.2581 4.48738 5.13139 3.79447 5.13139 2.62463ZM10.8565 2.24969C10.6541 2.24969 10.4599 2.32869 10.3167 2.46933C10.1736 2.60996 10.0932 2.8007 10.0932 2.99958C10.0932 3.19847 10.1736 3.38921 10.3167 3.52984C10.4599 3.67047 10.6541 3.74948 10.8565 3.74948H13.1466C13.349 3.74948 13.5432 3.67047 13.6863 3.52984C13.8295 3.38921 13.9099 3.19847 13.9099 2.99958C13.9099 2.8007 13.8295 2.60996 13.6863 2.46933C13.5432 2.32869 13.349 2.24969 13.1466 2.24969H10.8565ZM5.92374 9.91212C3.38179 9.13973 4.023 7.75992 4.99246 6.74906H19.2228C19.9984 7.72242 20.4144 9.03549 18.0702 9.82138C18.166 10.6568 18.082 11.5026 17.8236 12.3041C17.5653 13.1056 17.1384 13.8447 16.5706 14.4737C16.0027 15.1027 15.3067 15.6074 14.5275 15.9551C13.7484 16.3028 12.9036 16.4857 12.0478 16.4921C11.1921 16.4984 10.3445 16.328 9.56013 15.9919C8.77574 15.6557 8.07202 15.1614 7.4946 14.5409C6.91718 13.9205 6.47895 13.1877 6.20834 12.3902C5.93773 11.5926 5.84076 10.7481 5.92374 9.91137V9.91212ZM11.7939 10.4985C13.8107 10.4985 15.374 10.3936 16.5725 10.2106C16.6119 10.822 16.5237 11.4348 16.3135 12.0116C16.1033 12.5884 15.7754 13.1169 15.3499 13.5648C14.9244 14.0126 14.4103 14.3704 13.839 14.6162C13.2678 14.862 12.6515 14.9906 12.0279 14.9941C11.4043 14.9976 10.7865 14.876 10.2124 14.6367C9.63837 14.3974 9.1201 14.0455 8.68938 13.6024C8.25866 13.1594 7.92457 12.6347 7.70759 12.0603C7.49061 11.486 7.39532 10.8741 7.42754 10.2623C8.54432 10.4138 9.9756 10.4985 11.7939 10.4985ZM18.4266 21.447C17.7362 20.3888 16.7858 19.5182 15.663 18.9153C14.5402 18.3125 13.2811 17.9969 12.0015 17.9975C10.7215 17.9967 9.46178 18.3124 8.33854 18.9155C7.2153 19.5186 6.26464 20.3897 5.57413 21.4485C5.31786 21.0608 4.92428 20.7802 4.46956 20.6611L2.99477 20.2734C2.50595 20.1447 1.9851 20.212 1.54676 20.4605C1.10843 20.7089 0.788521 21.1183 0.657399 21.5985L0.0650407 23.7717C0.000165207 24.0095 -0.0163876 24.2576 0.0163275 24.5017C0.0490427 24.7458 0.130385 24.9812 0.25571 25.1944C0.381034 25.4076 0.547886 25.5945 0.746736 25.7444C0.945587 25.8942 1.17254 26.0042 1.41464 26.0679L2.88867 26.4563C3.13661 26.5219 3.3955 26.5375 3.64975 26.5022C3.904 26.4669 4.14833 26.3814 4.36804 26.2508C4.36865 26.4497 4.44965 26.6402 4.59324 26.7804C4.73682 26.9207 4.93122 26.9991 5.13368 26.9985C5.33613 26.9979 5.53005 26.9183 5.67278 26.7773C5.8155 26.6362 5.89534 26.4452 5.89474 26.2463V25.4964C5.89474 25.2107 5.91535 24.9295 5.95428 24.6543L9.92674 25.7004C10.1111 26.0882 10.4043 26.4162 10.7718 26.646C11.1393 26.8758 11.5659 26.9979 12.0015 26.9979C12.4372 26.9979 12.8638 26.8758 13.2313 26.646C13.5988 26.4162 13.8919 26.0882 14.0763 25.7004L18.0488 24.6543C18.0877 24.9295 18.1083 25.2107 18.1083 25.4964V26.2463C18.1073 26.4452 18.1868 26.6364 18.3292 26.7777C18.4716 26.919 18.6654 26.999 18.8678 27C19.0703 27.001 19.2649 26.9229 19.4087 26.783C19.5526 26.6431 19.634 26.4527 19.635 26.2538C20.0625 26.5058 20.5907 26.5935 21.1106 26.4563L22.5854 26.0686C22.8275 26.0049 23.0544 25.895 23.2533 25.7451C23.4521 25.5952 23.619 25.4084 23.7443 25.1951C23.8696 24.9819 23.951 24.7465 23.9837 24.5024C24.0164 24.2583 23.9998 24.0103 23.935 23.7724L23.3418 21.5992C23.2107 21.1191 22.8908 20.7097 22.4525 20.4612C22.0141 20.2127 21.4933 20.1454 21.0045 20.2742L19.5297 20.6619C19.076 20.7805 18.6831 21.0607 18.4266 21.447ZM6.35504 23.207C6.76739 22.2273 7.43639 21.3723 8.29407 20.7289C9.15175 20.0855 10.1675 19.6766 11.2382 19.5438V22.6251C10.8961 22.7443 10.5876 22.9415 10.3382 23.2005C10.0887 23.4596 9.90532 23.773 9.80308 24.1151L6.35504 23.2078V23.207ZM17.648 23.207C17.2356 22.2274 16.5666 21.3724 15.7089 20.729C14.8512 20.0856 13.8355 19.6767 12.7649 19.5438V22.6251C13.4549 22.8651 13.9939 23.42 14.2 24.1151L17.648 23.2078V23.207ZM12.0015 25.4964C12.204 25.4964 12.3981 25.4174 12.5413 25.2768C12.6845 25.1362 12.7649 24.9454 12.7649 24.7466C12.7649 24.5477 12.6845 24.3569 12.5413 24.2163C12.3981 24.0757 12.204 23.9967 12.0015 23.9967C11.7991 23.9967 11.6049 24.0757 11.4618 24.2163C11.3186 24.3569 11.2382 24.5477 11.2382 24.7466C11.2382 24.9454 11.3186 25.1362 11.4618 25.2768C11.6049 25.4174 11.7991 25.4964 12.0015 25.4964Z" fill="black"/>
</svg>
