<svg width="22" height="27" viewBox="0 0 22 27" fill="none" xmlns="http://www.w3.org/2000/svg">
<path fill-rule="evenodd" clip-rule="evenodd" d="M13.5897 0.339744C13.5897 0.249638 13.5539 0.163223 13.4902 0.0995087C13.4265 0.0357944 13.3401 0 13.25 0H3.73718C2.74602 0 1.79545 0.393738 1.09459 1.09459C0.393737 1.79545 0 2.74602 0 3.73718V22.7628C0 23.754 0.393737 24.7045 1.09459 25.4054C1.79545 26.1063 2.74602 26.5 3.73718 26.5H17.3269C18.3181 26.5 19.2687 26.1063 19.9695 25.4054C20.6704 24.7045 21.0641 23.754 21.0641 22.7628V9.37285C21.0641 9.28274 21.0283 9.19633 20.9646 9.13261C20.9009 9.0689 20.8145 9.0331 20.7244 9.0331H14.609C14.3387 9.0331 14.0794 8.92572 13.8883 8.73458C13.6971 8.54343 13.5897 8.28419 13.5897 8.01387V0.339744ZM14.609 13.5897C14.8793 13.5897 15.1385 13.6971 15.3297 13.8883C15.5208 14.0794 15.6282 14.3387 15.6282 14.609C15.6282 14.8793 15.5208 15.1385 15.3297 15.3297C15.1385 15.5208 14.8793 15.6282 14.609 15.6282H6.45513C6.18481 15.6282 5.92557 15.5208 5.73442 15.3297C5.54328 15.1385 5.4359 14.8793 5.4359 14.609C5.4359 14.3387 5.54328 14.0794 5.73442 13.8883C5.92557 13.6971 6.18481 13.5897 6.45513 13.5897H14.609ZM14.609 19.0256C14.8793 19.0256 15.1385 19.133 15.3297 19.3242C15.5208 19.5153 15.6282 19.7746 15.6282 20.0449C15.6282 20.3152 15.5208 20.5744 15.3297 20.7656C15.1385 20.9567 14.8793 21.0641 14.609 21.0641H6.45513C6.18481 21.0641 5.92557 20.9567 5.73442 20.7656C5.54328 20.5744 5.4359 20.3152 5.4359 20.0449C5.4359 19.7746 5.54328 19.5153 5.73442 19.3242C5.92557 19.133 6.18481 19.0256 6.45513 19.0256H14.609Z" fill="black"/>
<path d="M15.6284 0.780168C15.6284 0.530116 15.8907 0.371116 16.085 0.527399C16.2495 0.660578 16.3976 0.815501 16.524 0.992168L20.6186 6.69578C20.711 6.82624 20.6104 6.99476 20.4501 6.99476H15.9682C15.8781 6.99476 15.7916 6.95896 15.7279 6.89525C15.6642 6.83153 15.6284 6.74512 15.6284 6.65501V0.780168Z" fill="black"/>
</svg>
