<svg width="24" height="28" viewBox="0 0 24 28" fill="none" xmlns="http://www.w3.org/2000/svg">
<path fill-rule="evenodd" clip-rule="evenodd" d="M1.56267 1.6408C-1.58946e-07 3.2802 0 5.9206 0 11.2V16.8C0 22.0794 -1.58946e-07 24.7198 1.56267 26.3592C3.124 28 5.63867 28 10.6667 28H13.3333C18.3613 28 20.876 28 22.4373 26.3592C24 24.7198 24 22.0794 24 16.8V11.2C24 5.9206 24 3.2802 22.4373 1.6408C20.876 -1.66893e-07 18.3613 0 13.3333 0H10.6667C5.63867 0 3.124 -1.66893e-07 1.56267 1.6408ZM6.66667 10.15C6.40145 10.15 6.1471 10.2606 5.95956 10.4575C5.77202 10.6545 5.66667 10.9215 5.66667 11.2C5.66667 11.4785 5.77202 11.7455 5.95956 11.9425C6.1471 12.1394 6.40145 12.25 6.66667 12.25H17.3333C17.5986 12.25 17.8529 12.1394 18.0404 11.9425C18.228 11.7455 18.3333 11.4785 18.3333 11.2C18.3333 10.9215 18.228 10.6545 18.0404 10.4575C17.8529 10.2606 17.5986 10.15 17.3333 10.15H6.66667ZM6.66667 15.75C6.40145 15.75 6.1471 15.8606 5.95956 16.0575C5.77202 16.2545 5.66667 16.5215 5.66667 16.8C5.66667 17.0785 5.77202 17.3455 5.95956 17.5425C6.1471 17.7394 6.40145 17.85 6.66667 17.85H13.3333C13.5985 17.85 13.8529 17.7394 14.0404 17.5425C14.228 17.3455 14.3333 17.0785 14.3333 16.8C14.3333 16.5215 14.228 16.2545 14.0404 16.0575C13.8529 15.8606 13.5985 15.75 13.3333 15.75H6.66667Z" fill="black"/>
</svg>
