<svg width="29" height="23" viewBox="0 0 29 23" fill="none" xmlns="http://www.w3.org/2000/svg">
<path d="M20.3 19.9333V23H0V19.9333C0 19.9333 0 13.8 10.15 13.8C20.3 13.8 20.3 19.9333 20.3 19.9333ZM15.225 5.36673C15.225 4.30531 14.9274 3.26772 14.3697 2.38518C13.8121 1.50264 13.0195 0.814781 12.0921 0.408593C11.1648 0.00240374 10.1444 -0.103874 9.15992 0.1032C8.17546 0.310273 7.27118 0.821397 6.56143 1.57194C5.85168 2.32247 5.36834 3.27872 5.17251 4.31975C4.9767 5.36078 5.0772 6.43983 5.46131 7.42045C5.84543 8.40108 6.4959 9.23924 7.33048 9.82893C8.16506 10.4186 9.14626 10.7334 10.15 10.7334C11.496 10.7334 12.7868 10.168 13.7386 9.16152C14.6903 8.15508 15.225 6.79005 15.225 5.36673ZM20.213 13.8C21.1044 14.5295 21.8338 15.4567 22.3498 16.5163C22.8659 17.576 23.1561 18.7423 23.2 19.9333V23H29V19.9333C29 19.9333 29 14.3674 20.213 13.8ZM18.85 8.06209e-05C17.8519 -0.00579619 16.8758 0.309745 16.0515 0.904744C16.9323 2.20614 17.4059 3.76637 17.4059 5.36673C17.4059 6.96708 16.9323 8.52732 16.0515 9.82871C16.8758 10.4237 17.8519 10.7393 18.85 10.7334C20.196 10.7334 21.4868 10.168 22.4386 9.16152C23.3903 8.15508 23.925 6.79005 23.925 5.36673C23.925 3.94341 23.3903 2.57838 22.4386 1.57194C21.4868 0.565494 20.196 8.06209e-05 18.85 8.06209e-05Z" fill="black"/>
</svg>
