<svg width="24" height="26" viewBox="0 0 24 26" fill="none" xmlns="http://www.w3.org/2000/svg">
<path fill-rule="evenodd" clip-rule="evenodd" d="M11.064 0.16592C11.5902 -0.0272503 12.1651 -0.0524336 12.7067 0.0939629L12.936 0.16592L22.2693 3.60026C22.7426 3.77439 23.1556 4.07689 23.4604 4.47252C23.7652 4.86816 23.9491 5.34063 23.9907 5.83488L24 6.05075V13.0673C23.9999 15.1873 23.4166 17.268 22.3115 19.0897C21.2064 20.9114 19.6205 22.4066 17.7213 23.4174L17.3667 23.5993L12.8947 25.7933C12.6484 25.9139 12.3795 25.9834 12.1046 25.9974C11.8298 26.0113 11.5549 25.9695 11.2973 25.8744L11.1053 25.7933L6.63333 23.5993C4.70081 22.6511 3.06503 21.2086 1.89867 19.4239C0.73231 17.6392 0.0786407 15.5787 0.00666682 13.4598L0 13.0673V6.05075C7.7534e-06 5.55506 0.143502 5.06958 0.413778 4.65081C0.684054 4.23204 1.06999 3.89721 1.52667 3.6853L1.73067 3.60026L11.064 0.16592ZM16.5773 8.58366L10.4467 14.5993L8.08933 12.2862C7.83915 12.0409 7.49989 11.9031 7.1462 11.9033C6.7925 11.9034 6.45334 12.0414 6.20333 12.2869C5.95332 12.5324 5.81294 12.8652 5.81306 13.2123C5.81319 13.5594 5.95381 13.8922 6.204 14.1375L9.40933 17.2827C9.54554 17.4164 9.70725 17.5225 9.88524 17.5948C10.0632 17.6672 10.254 17.7044 10.4467 17.7044C10.6393 17.7044 10.8301 17.6672 11.0081 17.5948C11.1861 17.5225 11.3478 17.4164 11.484 17.2827L18.4627 10.4336C18.59 10.3129 18.6916 10.1686 18.7615 10.0089C18.8313 9.84933 18.8681 9.67765 18.8697 9.50393C18.8712 9.33021 18.8375 9.15794 18.7704 8.99715C18.7034 8.83636 18.6044 8.69028 18.4792 8.56744C18.354 8.4446 18.2051 8.34745 18.0413 8.28167C17.8774 8.21589 17.7018 8.18278 17.5248 8.18429C17.3478 8.1858 17.1728 8.22189 17.0101 8.29046C16.8475 8.35903 16.7003 8.4587 16.5773 8.58366Z" fill="black"/>
</svg>
