<svg width="30" height="23" viewBox="0 0 30 23" fill="none" xmlns="http://www.w3.org/2000/svg">
<path d="M29.25 15.8125H28.5V10.9564C28.5 10.3859 28.2609 9.83789 27.8391 9.43359L23.1562 4.9459C22.7344 4.5416 22.1625 4.3125 21.5672 4.3125H19.5V2.15625C19.5 0.96582 18.4922 0 17.25 0H2.25C1.00781 0 0 0.96582 0 2.15625V16.5312C0 17.7217 1.00781 18.6875 2.25 18.6875H3C3 21.0684 5.01562 23 7.5 23C9.98438 23 12 21.0684 12 18.6875H18C18 21.0684 20.0156 23 22.5 23C24.9844 23 27 21.0684 27 18.6875H29.25C29.6625 18.6875 30 18.3641 30 17.9688V16.5312C30 16.1359 29.6625 15.8125 29.25 15.8125ZM7.5 20.8438C6.25781 20.8438 5.25 19.8779 5.25 18.6875C5.25 17.4971 6.25781 16.5312 7.5 16.5312C8.74219 16.5312 9.75 17.4971 9.75 18.6875C9.75 19.8779 8.74219 20.8438 7.5 20.8438ZM22.5 20.8438C21.2578 20.8438 20.25 19.8779 20.25 18.6875C20.25 17.4971 21.2578 16.5312 22.5 16.5312C23.7422 16.5312 24.75 17.4971 24.75 18.6875C24.75 19.8779 23.7422 20.8438 22.5 20.8438ZM26.25 11.5H19.5V6.46875H21.5672L26.25 10.9564V11.5Z" fill="black"/>
</svg>
