<svg width="22" height="28" viewBox="0 0 22 28" fill="none" xmlns="http://www.w3.org/2000/svg">
<path d="M9.8535e-06 5.21177C-4.61454e-05 4.59188 0.217509 3.99165 0.61473 3.51576C1.01195 3.03987 1.56363 2.71852 2.17354 2.60777L16.2874 0.0425807C16.6686 -0.0266416 17.0603 -0.0113162 17.4349 0.0874744C17.8096 0.186265 18.1579 0.366111 18.4554 0.614308C18.7529 0.862505 18.9923 1.173 19.1567 1.52386C19.321 1.87471 19.4063 2.25738 19.4065 2.64482V3.474C19.9431 3.78383 20.3887 4.22952 20.6984 4.76623C21.0081 5.30294 21.171 5.91175 21.1707 6.53141V24.1737C21.1707 25.1095 20.799 26.007 20.1373 26.6687C19.4756 27.3304 18.5781 27.7021 17.6423 27.7021H3.52846C3.02333 27.7028 2.52396 27.5948 2.06429 27.3854C1.60462 27.1759 1.19541 26.87 0.864481 26.4883C0.59134 26.2406 0.373256 25.9383 0.224342 25.601C0.0754272 25.2636 -0.000998706 24.8988 9.8535e-06 24.5301V5.21177ZM5.29269 13.5883C5.29269 14.992 5.85031 16.3382 6.84288 17.3308C7.83545 18.3234 9.18167 18.881 10.5854 18.881C11.9891 18.881 13.3353 18.3234 14.3279 17.3308C15.3204 16.3382 15.8781 14.992 15.8781 13.5883C15.8781 12.1846 15.3204 10.8384 14.3279 9.84583C13.3353 8.85326 11.9891 8.29563 10.5854 8.29563C9.18167 8.29563 7.83545 8.85326 6.84288 9.84583C5.85031 10.8384 5.29269 12.1846 5.29269 13.5883ZM5.29269 21.5273C5.29269 21.7613 5.38563 21.9857 5.55106 22.1511C5.71648 22.3165 5.94085 22.4095 6.1748 22.4095H14.9959C15.2299 22.4095 15.4543 22.3165 15.6197 22.1511C15.7851 21.9857 15.8781 21.7613 15.8781 21.5273C15.8781 21.2934 15.7851 21.069 15.6197 20.9036C15.4543 20.7382 15.2299 20.6452 14.9959 20.6452H6.1748C5.94085 20.6452 5.71648 20.7382 5.55106 20.9036C5.38563 21.069 5.29269 21.2934 5.29269 21.5273Z" fill="black"/>
</svg>
