<svg width="594" height="95" viewBox="0 0 594 95" fill="none" xmlns="http://www.w3.org/2000/svg">
<path d="M15.3992 89.36V87.1996C16.6168 87.3711 17.5085 87.0281 18.0744 86.1707C18.6575 85.3132 18.949 83.7783 18.949 81.5659V71.3535H30.8333V89.36H28.4409V73.6174H21.3413V81.5659C21.3413 83.1609 21.1869 84.5068 20.8783 85.6047C20.5867 86.7022 20.158 87.5251 19.5921 88.0741C19.0433 88.6226 18.426 89 17.74 89.206C17.0712 89.3945 16.2909 89.446 15.3992 89.36ZM45.3273 87.7396C44.0239 89.043 42.4205 89.6945 40.5169 89.6945C38.6134 89.6945 37.01 89.043 35.7066 87.7396C34.4033 86.4362 33.7516 84.8328 33.7516 82.9294C33.7516 81.026 34.4033 79.4226 35.7066 78.1191C37.01 76.8157 38.6134 76.1642 40.5169 76.1642C42.4205 76.1642 44.0239 76.8157 45.3273 78.1191C46.6477 79.4396 47.3079 81.043 47.3079 82.9294C47.3079 84.8158 46.6477 86.4192 45.3273 87.7396ZM40.5169 87.5081C41.8031 87.5081 42.8835 87.0706 43.7581 86.1962C44.6327 85.3217 45.07 84.2328 45.07 82.9294C45.07 81.6259 44.6327 80.537 43.7581 79.6625C42.8835 78.7876 41.8031 78.3506 40.5169 78.3506C39.2479 78.3506 38.1761 78.7876 37.3015 79.6625C36.4269 80.537 35.9896 81.6259 35.9896 82.9294C35.9896 84.2328 36.4269 85.3217 37.3015 86.1962C38.1761 87.0706 39.2479 87.5081 40.5169 87.5081ZM49.9462 76.4982H58.3836V78.6591H52.1839V89.36H49.9462V76.4982ZM62.5583 85.5272L69.684 76.4982H71.4844V89.36H69.272V80.331L62.1469 89.36H60.346V76.4982H62.5583V85.5272ZM80.9358 89.6945C78.9979 89.6945 77.386 89.0515 76.1001 87.7651C74.8137 86.4622 74.1707 84.8498 74.1707 82.9294C74.1707 81.0085 74.8137 79.4051 76.1001 78.1191C77.386 76.8157 78.9979 76.1642 80.9358 76.1642C82.2048 76.1642 83.3452 76.4727 84.3571 77.0902C85.3691 77.6902 86.1235 78.5051 86.621 79.5341L84.7431 80.614C84.4171 79.928 83.9112 79.3796 83.2252 78.9681C82.5567 78.5561 81.7933 78.3506 80.9358 78.3506C79.6499 78.3506 78.5695 78.7876 77.695 79.6625C76.8376 80.554 76.4086 81.6429 76.4086 82.9294C76.4086 84.1983 76.8376 85.2787 77.695 86.1707C78.5695 87.0451 79.6499 87.4826 80.9358 87.4826C81.7933 87.4826 82.5652 87.2851 83.2512 86.8906C83.9372 86.4792 84.4601 85.9302 84.8201 85.2442L86.724 86.3507C86.158 87.3796 85.3606 88.1941 84.3316 88.794C83.3027 89.3945 82.1708 89.6945 80.9358 89.6945ZM87.292 76.4982H98.3014V78.6591H93.9286V89.36H91.6907V78.6591H87.292V76.4982ZM102.475 85.5272L109.6 76.4982H111.401V89.36H109.189V80.331L102.064 89.36H100.263V76.4982H102.475V85.5272ZM122.91 82.6464V76.4982H125.148V89.36H122.91V84.7298C121.865 85.1757 120.707 85.3987 119.438 85.3987C117.774 85.3987 116.497 85.0043 115.605 84.2153C114.713 83.4268 114.267 82.2774 114.267 80.7685V76.4982H116.505V80.64C116.505 81.5829 116.754 82.2689 117.251 82.6979C117.766 83.1094 118.546 83.3153 119.592 83.3153C120.776 83.3153 121.882 83.0924 122.91 82.6464ZM140.896 83.9583H130.118C130.341 85.0903 130.864 85.9817 131.687 86.6337C132.51 87.2681 133.539 87.5851 134.774 87.5851C136.471 87.5851 137.706 86.9591 138.478 85.7072L140.382 86.7877C139.112 88.7255 137.226 89.6945 134.722 89.6945C132.698 89.6945 131.035 89.06 129.732 87.7911C128.463 86.4877 127.828 84.8673 127.828 82.9294C127.828 80.9745 128.454 79.3626 129.706 78.0931C130.958 76.8072 132.578 76.1642 134.568 76.1642C136.454 76.1642 137.989 76.8327 139.173 78.1706C140.373 79.4736 140.973 81.0685 140.973 82.9549C140.973 83.2808 140.947 83.6153 140.896 83.9583ZM134.568 78.2731C133.384 78.2731 132.39 78.6076 131.584 79.2766C130.795 79.9455 130.306 80.8545 130.118 82.0034H138.709C138.521 80.82 138.049 79.9025 137.295 79.2511C136.54 78.5991 135.631 78.2731 134.568 78.2731ZM149.566 89.6945C147.628 89.6945 146.016 89.0515 144.729 87.7651C143.443 86.4622 142.8 84.8498 142.8 82.9294C142.8 81.0085 143.443 79.4051 144.729 78.1191C146.016 76.8157 147.628 76.1642 149.566 76.1642C150.834 76.1642 151.975 76.4727 152.987 77.0902C153.998 77.6902 154.753 78.5051 155.25 79.5341L153.372 80.614C153.047 79.928 152.541 79.3796 151.855 78.9681C151.186 78.5561 150.423 78.3506 149.566 78.3506C148.279 78.3506 147.199 78.7876 146.324 79.6625C145.467 80.554 145.038 81.6429 145.038 82.9294C145.038 84.1983 145.467 85.2787 146.324 86.1707C147.199 87.0451 148.279 87.4826 149.566 87.4826C150.423 87.4826 151.194 87.2851 151.88 86.8906C152.566 86.4792 153.089 85.9302 153.45 85.2442L155.353 86.3507C154.787 87.3796 153.99 88.1941 152.961 88.794C151.932 89.3945 150.8 89.6945 149.566 89.6945ZM162.115 82.7234L168.469 89.36H165.691L159.826 83.2638V89.36H157.588V76.4982H159.826V82.1834L165.382 76.4982H168.263L162.115 82.7234ZM172.762 85.5272L179.888 76.4982H181.688V89.36H179.476V80.331L172.351 89.36H170.55V76.4982H172.762V85.5272ZM194.15 74.5693H187.204V72.6144H194.15V74.5693ZM187.307 85.5272L194.433 76.4982H196.233V89.36H194.021V80.331L186.895 89.36H185.095V76.4982H187.307V85.5272ZM216.72 78.7106V76.4982H218.958V89.36H216.72V87.1481C215.623 88.8455 214.002 89.6945 211.859 89.6945C210.041 89.6945 208.506 89.043 207.254 87.7396C205.985 86.4192 205.35 84.8158 205.35 82.9294C205.35 81.06 205.985 79.4651 207.254 78.1446C208.523 76.8242 210.058 76.1642 211.859 76.1642C214.002 76.1642 215.623 77.0127 216.72 78.7106ZM212.142 87.5336C213.445 87.5336 214.534 87.0966 215.408 86.2217C216.283 85.3132 216.72 84.2153 216.72 82.9294C216.72 81.6259 216.283 80.537 215.408 79.6625C214.534 78.7706 213.445 78.3246 212.142 78.3246C210.855 78.3246 209.775 78.7706 208.9 79.6625C208.026 80.537 207.588 81.6259 207.588 82.9294C207.588 84.2153 208.026 85.3132 208.9 86.2217C209.775 87.0966 210.855 87.5336 212.142 87.5336ZM222.349 76.4982H230.786V78.6591H224.587V89.36H222.349V76.4982ZM239.848 76.1642C241.649 76.1642 243.184 76.8242 244.453 78.1446C245.722 79.4651 246.357 81.06 246.357 82.9294C246.357 84.8158 245.722 86.4192 244.453 87.7396C243.201 89.043 241.666 89.6945 239.848 89.6945C237.722 89.6945 236.101 88.8455 234.987 87.1481V94.5047H232.749V76.4982H234.987V78.7106C236.101 77.0127 237.722 76.1642 239.848 76.1642ZM239.566 87.5336C240.852 87.5336 241.932 87.0966 242.807 86.2217C243.681 85.3132 244.119 84.2153 244.119 82.9294C244.119 81.6259 243.681 80.537 242.807 79.6625C241.932 78.7706 240.852 78.3246 239.566 78.3246C238.262 78.3246 237.173 78.7706 236.299 79.6625C235.424 80.537 234.987 81.6259 234.987 82.9294C234.987 84.2153 235.424 85.3132 236.299 86.2217C237.173 87.0966 238.262 87.5336 239.566 87.5336ZM261.374 83.9583H250.596C250.819 85.0903 251.342 85.9817 252.165 86.6337C252.988 87.2681 254.017 87.5851 255.252 87.5851C256.95 87.5851 258.184 86.9591 258.956 85.7072L260.86 86.7877C259.591 88.7255 257.704 89.6945 255.201 89.6945C253.177 89.6945 251.513 89.06 250.21 87.7911C248.941 86.4877 248.307 84.8673 248.307 82.9294C248.307 80.9745 248.932 79.3626 250.184 78.0931C251.436 76.8072 253.057 76.1642 255.046 76.1642C256.933 76.1642 258.467 76.8327 259.651 78.1706C260.851 79.4736 261.451 81.0685 261.451 82.9549C261.451 83.2808 261.426 83.6153 261.374 83.9583ZM255.046 78.2731C253.863 78.2731 252.868 78.6076 252.062 79.2766C251.273 79.9455 250.785 80.8545 250.596 82.0034H259.188C258.999 80.82 258.527 79.9025 257.773 79.2511C257.019 78.5991 256.11 78.2731 255.046 78.2731ZM264.024 76.4982H272.461V78.6591H266.262V89.36H264.024V76.4982ZM284.571 78.7106V76.4982H286.809V89.36H284.571V87.1481C283.474 88.8455 281.853 89.6945 279.709 89.6945C277.891 89.6945 276.356 89.043 275.105 87.7396C273.836 86.4192 273.201 84.8158 273.201 82.9294C273.201 81.06 273.836 79.4651 275.105 78.1446C276.374 76.8242 277.908 76.1642 279.709 76.1642C281.853 76.1642 283.474 77.0127 284.571 78.7106ZM279.992 87.5336C281.296 87.5336 282.385 87.0966 283.259 86.2217C284.134 85.3132 284.571 84.2153 284.571 82.9294C284.571 81.6259 284.134 80.537 283.259 79.6625C282.385 78.7706 281.296 78.3246 279.992 78.3246C278.706 78.3246 277.625 78.7706 276.751 79.6625C275.876 80.537 275.439 81.6259 275.439 82.9294C275.439 84.2153 275.876 85.3132 276.751 86.2217C277.625 87.0966 278.706 87.5336 279.992 87.5336ZM288.759 76.4982H299.769V78.6591H295.396V89.36H293.158V78.6591H288.759V76.4982ZM312.083 87.7396C310.78 89.043 309.176 89.6945 307.273 89.6945C305.369 89.6945 303.765 89.043 302.462 87.7396C301.159 86.4362 300.507 84.8328 300.507 82.9294C300.507 81.026 301.159 79.4226 302.462 78.1191C303.765 76.8157 305.369 76.1642 307.273 76.1642C309.176 76.1642 310.78 76.8157 312.083 78.1191C313.403 79.4396 314.063 81.043 314.063 82.9294C314.063 84.8158 313.403 86.4192 312.083 87.7396ZM307.273 87.5081C308.559 87.5081 309.639 87.0706 310.514 86.1962C311.389 85.3217 311.825 84.2328 311.825 82.9294C311.825 81.6259 311.389 80.537 310.514 79.6625C309.639 78.7876 308.559 78.3506 307.273 78.3506C306.003 78.3506 304.932 78.7876 304.057 79.6625C303.182 80.537 302.745 81.6259 302.745 82.9294C302.745 84.2328 303.182 85.3217 304.057 86.1962C304.932 87.0706 306.003 87.5081 307.273 87.5081ZM323.801 76.1642C325.602 76.1642 327.137 76.8242 328.406 78.1446C329.675 79.4651 330.309 81.06 330.309 82.9294C330.309 84.8158 329.675 86.4192 328.406 87.7396C327.154 89.043 325.619 89.6945 323.801 89.6945C321.675 89.6945 320.055 88.8455 318.94 87.1481V94.5047H316.702V76.4982H318.94V78.7106C320.055 77.0127 321.675 76.1642 323.801 76.1642ZM323.518 87.5336C324.805 87.5336 325.885 87.0966 326.76 86.2217C327.634 85.3132 328.072 84.2153 328.072 82.9294C328.072 81.6259 327.634 80.537 326.76 79.6625C325.885 78.7706 324.805 78.3246 323.518 78.3246C322.215 78.3246 321.126 78.7706 320.251 79.6625C319.377 80.537 318.94 81.6259 318.94 82.9294C318.94 84.2153 319.377 85.3132 320.251 86.2217C321.126 87.0966 322.215 87.5336 323.518 87.5336Z" fill="#0B1A39"/>
<path d="M341.227 1.71191H483.365V54.7636H395.325C380.976 54.7606 367.216 49.1704 357.071 39.2216C346.926 29.2728 341.227 15.7804 341.227 1.71191Z" fill="#F97C00"/>
<path d="M547.424 34.7381H492.369V2.70703C513.791 7.48398 533.075 18.7038 547.424 34.7381Z" fill="#F97C00"/>
<path d="M492.369 39.751H543.385C556.669 39.7528 569.408 45.0265 578.798 54.4123C588.192 63.7978 593.467 76.5271 593.467 89.7998H492.369V39.751Z" fill="#0B1A39"/>
<path d="M410.291 61.7656H483.362V89.7926C477.557 89.1546 471.794 88.1882 466.103 86.8972C445.958 82.321 426.97 73.7705 410.291 61.7656Z" fill="#0B1A39"/>
<path d="M53.8775 11.4182H33.7311V59.0104H20.2345V11.4182H0V1.71191H53.8775V11.4182Z" fill="#0B1A39"/>
<path d="M81.242 59.0104H67.5587V1.71191H81.242V59.0104Z" fill="#0B1A39"/>
<path d="M114.543 59.0104H100.915V1.71191H133.279C136.921 1.71191 140.254 2.1948 143.276 3.16056C146.297 4.12633 148.882 5.48326 151.029 7.23136C153.139 8.93607 154.851 11.0716 156.05 13.492C157.265 15.9638 157.886 18.6806 157.863 21.4296C157.863 25.7631 156.514 29.5469 153.816 32.7811C151.118 36.0153 147.525 38.3374 143.037 39.7473C149.024 46.1109 154.938 52.5292 160.779 59.0029H144.516C141.676 56.0395 138.897 53.0417 136.18 50.0094C133.463 46.9775 130.746 43.8987 128.029 40.773H114.543V59.0104ZM114.543 31.0667H133.264C134.563 31.0558 135.854 30.8578 137.095 30.479C138.382 30.1092 139.584 29.4979 140.637 28.6785C141.687 27.852 142.562 26.8279 143.209 25.6651C143.888 24.466 144.227 23.0567 144.228 21.4371C144.21 20.4353 144.083 19.4383 143.851 18.4631C143.571 17.2723 143.042 16.1527 142.298 15.1765C141.52 14.1321 140.42 13.2449 138.998 12.515C137.576 11.7851 135.667 11.4195 133.274 11.4182H114.552L114.543 31.0667Z" fill="#0B1A39"/>
<path d="M242.024 27.2183C241.96 28.3234 241.928 29.3486 241.928 30.294C241.862 31.1369 241.832 31.9648 241.832 32.7794C241.843 33.3989 241.81 34.0183 241.734 34.6332C241.354 38.2422 240.109 41.7055 238.105 44.7277C236.028 47.8758 233.365 50.5935 230.264 52.7329C227.071 54.9683 223.393 56.7162 219.23 57.9771C214.975 59.25 210.556 59.8855 206.115 59.863C201.272 59.895 196.46 59.0945 191.886 57.4961C187.434 55.9197 183.537 53.7778 180.195 51.0695C176.941 48.4678 174.241 45.2355 172.258 41.5653C170.338 37.9973 169.333 34.0064 169.333 29.9518C169.333 25.8971 170.338 21.9062 172.258 18.3382C174.234 14.6522 176.934 11.4061 180.195 8.79613C183.535 6.08819 187.432 3.9453 191.886 2.36753C196.46 0.770037 201.273 -0.0304076 206.115 0.000883125C212.509 0.000883125 218.365 1.21029 223.683 3.62912C229 6.04794 233.308 9.28206 236.605 13.3314L224.989 19.0869C222.924 16.6164 220.228 14.5421 216.903 12.8638C213.558 11.177 209.86 10.3121 206.115 10.3406C200.121 10.305 194.308 12.4009 189.709 16.2563C187.649 17.9944 185.955 20.1258 184.724 22.5265C183.516 24.831 182.885 27.3954 182.885 29.9989C182.885 32.6024 183.516 35.1668 184.724 37.4713C185.963 39.8532 187.657 41.9676 189.709 43.6943C194.307 47.5519 200.121 49.6481 206.115 49.61C208.5 49.6188 210.875 49.3138 213.18 48.703C215.352 48.1344 217.436 47.2723 219.376 46.1402C221.194 45.079 222.842 43.7497 224.265 42.197C225.612 40.7386 226.649 39.0211 227.314 37.1488H201.176V27.2183H242.024Z" fill="#0B1A39"/>
<path d="M289.009 59.863C284.161 59.895 279.344 59.0955 274.766 57.4996C270.309 55.9247 266.419 53.7853 263.095 51.081C259.849 48.4803 257.161 45.2521 255.189 41.5889C253.28 38.0072 252.281 34.0102 252.281 29.9508C252.281 25.8914 253.28 21.8944 255.189 18.3127C257.153 14.6338 259.842 11.3918 263.095 8.78294C266.422 6.07849 270.312 3.93836 274.766 2.36263C279.344 0.767981 284.162 -0.0307996 289.009 0.000908183C294.112 0.000908183 298.892 0.788155 303.349 2.36263C307.806 3.9371 311.697 6.07719 315.019 8.78294C318.269 11.391 320.958 14.6309 322.921 18.307C324.83 21.8892 325.828 25.886 325.828 29.9452C325.828 34.0043 324.83 38.0012 322.921 41.5833C320.952 45.2451 318.267 48.4731 315.025 51.0755C311.697 53.7798 307.807 55.9192 303.355 57.4936C298.902 59.068 294.121 59.858 289.009 59.863ZM289.058 10.3179C283.067 10.2858 277.259 12.3828 272.669 16.2353C270.612 17.9734 268.919 20.1017 267.688 22.4975C266.482 24.8 265.853 27.3608 265.853 29.9602C265.853 32.5597 266.482 35.1204 267.688 37.4229C268.932 39.8101 270.623 41.9359 272.669 43.6851C274.845 45.5452 277.33 47.0111 280.01 48.0168C285.842 50.1665 292.248 50.1665 298.08 48.0168C300.761 47.0111 303.245 45.5452 305.421 43.6851C307.467 41.9359 309.158 39.8101 310.402 37.4229C311.609 35.1207 312.239 32.5599 312.239 29.9602C312.239 27.3605 311.609 24.7997 310.402 22.4975C309.178 20.1039 307.494 17.9758 305.446 16.2353C300.855 12.3864 295.047 10.2928 289.058 10.3273V10.3179Z" fill="#0B1A39"/>
</svg>
